<?xml version="1.0" encoding="UTF-8" standalone="no"?>
<!DOCTYPE svg PUBLIC "-//W3C//DTD SVG 1.1//EN" "http://www.w3.org/Graphics/SVG/1.1/DTD/svg11.dtd">
<svg width="100%" height="100%" viewBox="0 0 101 100" version="1.1" xmlns="http://www.w3.org/2000/svg" xmlns:xlink="http://www.w3.org/1999/xlink" xml:space="preserve" xmlns:serif="http://www.serif.com/" style="fill-rule:evenodd;clip-rule:evenodd;stroke-linejoin:round;stroke-miterlimit:2;">
    <g transform="matrix(1,0,0,1,-14.9465,-15.9468)">
        <g transform="matrix(0.623416,0,0,0.623416,-613.963,-3.7991)">
            <g transform="matrix(1.27995,0,0,1.05421,530.589,-30.5119)">
                <path d="M498.97,97.024C498.97,76.031 484.933,58.988 467.642,58.988L404.955,58.988C387.665,58.988 373.627,76.031 373.627,97.024L373.627,173.098C373.627,194.091 387.665,211.134 404.955,211.134L467.642,211.134C484.933,211.134 498.97,194.091 498.97,173.098L498.97,97.024Z" style="fill:rgb(0,14,46);"/>
            </g>
            <g transform="matrix(1.48971,0,0,1.48971,1014.54,47.3167)">
                <path d="M86.901,38.334C91.262,30.912 91.042,22.081 85.628,16.667L63.965,38.334L86.901,38.334Z" style="fill:white;fill-rule:nonzero;"/>
                <path d="M14.038,29.731C12.692,30.268 11.665,31.062 11.201,32.189C10.457,33.98 11.198,36.18 12.954,38.335L42.824,38.335C43.319,37.437 43.781,36.482 44.198,35.477C47.321,27.941 46.791,20.568 43.026,19.006C41.906,18.544 40.614,18.707 39.282,19.279C39.744,15.405 38.891,12.267 36.762,11.388C34.56,10.473 31.622,12.221 29.159,15.499C26.561,11.485 23.201,9.226 20.751,10.242C18.301,11.258 17.522,15.229 18.523,19.904C14.465,19.331 11.151,20.168 10.24,22.371C9.357,24.5 10.968,27.319 14.038,29.731Z" style="fill:white;fill-rule:nonzero;"/>
                <path d="M90,43.334C90,61.743 72.093,76.667 50,76.667C27.907,76.667 10,61.742 10,43.334L90,43.334Z" style="fill:white;fill-rule:nonzero;"/>
                <path d="M56.667,16.667C54.036,16.667 51.526,17.188 49.226,18.116C50.32,19.877 51.003,22.094 51.185,24.643C51.458,28.517 50.619,33.041 48.816,37.39C48.682,37.719 48.509,38.015 48.366,38.334L56.895,38.334L71.709,23.52C68.04,19.327 62.669,16.667 56.667,16.667Z" style="fill:rgb(255,74,74);fill-rule:nonzero;"/>
            </g>
        </g>
    </g>
</svg>
