<?xml version="1.0" encoding="UTF-8" standalone="no"?>
<!DOCTYPE svg PUBLIC "-//W3C//DTD SVG 1.1//EN" "http://www.w3.org/Graphics/SVG/1.1/DTD/svg11.dtd">
<svg width="100%" height="100%" viewBox="0 0 740 385" version="1.1" xmlns="http://www.w3.org/2000/svg" xmlns:xlink="http://www.w3.org/1999/xlink" xml:space="preserve" xmlns:serif="http://www.serif.com/" style="fill-rule:evenodd;clip-rule:evenodd;stroke-linejoin:round;stroke-miterlimit:2;">
    <g transform="matrix(1,0,0,1,-960,-222.06)">
        <g transform="matrix(1.14601,0,0,1.14601,822.369,-196.597)">
            <g transform="matrix(200,0,0,200,120.096,505.357)">
                <path d="M0.498,-0.124C0.514,-0.099 0.529,-0.079 0.542,-0.063C0.555,-0.048 0.567,-0.036 0.576,-0.028C0.585,-0.02 0.592,-0.014 0.597,-0.011C0.602,-0.008 0.604,-0.007 0.604,-0.007L0.604,-0L0.389,-0L0.389,-0.007C0.389,-0.007 0.389,-0.007 0.391,-0.008C0.393,-0.008 0.395,-0.01 0.397,-0.011C0.399,-0.013 0.401,-0.015 0.403,-0.018C0.405,-0.021 0.407,-0.025 0.407,-0.03C0.408,-0.035 0.408,-0.041 0.407,-0.048C0.406,-0.055 0.403,-0.063 0.399,-0.073C0.395,-0.083 0.389,-0.094 0.38,-0.106L0.215,-0.368L0.154,-0.298L0.154,-0.144C0.154,-0.11 0.156,-0.083 0.161,-0.065C0.165,-0.046 0.17,-0.033 0.176,-0.024C0.179,-0.02 0.182,-0.016 0.185,-0.014C0.188,-0.012 0.19,-0.01 0.192,-0.009C0.194,-0.008 0.196,-0.007 0.197,-0.007C0.199,-0.007 0.199,-0.007 0.199,-0.007L0.199,-0L0,-0L0,-0.007C0,-0.007 0.001,-0.007 0.002,-0.007C0.004,-0.008 0.006,-0.009 0.009,-0.01C0.011,-0.012 0.014,-0.014 0.018,-0.018C0.021,-0.021 0.024,-0.026 0.027,-0.032C0.031,-0.039 0.034,-0.047 0.036,-0.057C0.039,-0.067 0.041,-0.079 0.043,-0.093C0.045,-0.108 0.045,-0.125 0.045,-0.144L0.045,-0.556C0.045,-0.576 0.045,-0.593 0.043,-0.607C0.041,-0.621 0.039,-0.633 0.036,-0.643C0.034,-0.653 0.031,-0.661 0.027,-0.668C0.024,-0.674 0.021,-0.679 0.018,-0.682C0.014,-0.686 0.011,-0.688 0.009,-0.69C0.006,-0.692 0.004,-0.693 0.002,-0.693C0.001,-0.693 0,-0.693 0,-0.693L0,-0.7L0.199,-0.7L0.199,-0.693C0.199,-0.693 0.199,-0.693 0.197,-0.693C0.196,-0.693 0.194,-0.692 0.192,-0.691C0.19,-0.69 0.188,-0.688 0.185,-0.686C0.182,-0.684 0.179,-0.681 0.176,-0.676C0.17,-0.668 0.165,-0.654 0.161,-0.635C0.156,-0.617 0.154,-0.59 0.154,-0.556L0.154,-0.319L0.431,-0.634C0.438,-0.642 0.443,-0.648 0.446,-0.654C0.449,-0.66 0.452,-0.665 0.453,-0.669C0.454,-0.673 0.454,-0.677 0.453,-0.68C0.452,-0.683 0.451,-0.685 0.45,-0.687C0.448,-0.689 0.446,-0.69 0.445,-0.691C0.443,-0.692 0.441,-0.693 0.44,-0.693C0.438,-0.693 0.438,-0.693 0.438,-0.693L0.438,-0.7L0.533,-0.7L0.533,-0.693C0.533,-0.693 0.529,-0.692 0.522,-0.69C0.514,-0.688 0.504,-0.682 0.492,-0.674C0.479,-0.665 0.464,-0.651 0.447,-0.633L0.289,-0.453L0.498,-0.124Z" style="fill:rgb(0,14,46);fill-rule:nonzero;"/>
            </g>
            <g transform="matrix(200,0,0,200,232.108,505.357)">
                <path d="M0.3,-0.28C0.278,-0.274 0.257,-0.268 0.236,-0.26C0.215,-0.252 0.195,-0.241 0.177,-0.227C0.159,-0.213 0.144,-0.193 0.132,-0.168C0.149,-0.135 0.172,-0.108 0.201,-0.085C0.218,-0.073 0.237,-0.064 0.257,-0.058C0.267,-0.055 0.277,-0.054 0.288,-0.054C0.305,-0.054 0.322,-0.058 0.337,-0.065C0.352,-0.073 0.365,-0.083 0.377,-0.096C0.393,-0.114 0.404,-0.135 0.412,-0.159L0.425,-0.155C0.419,-0.136 0.412,-0.121 0.406,-0.108C0.4,-0.096 0.395,-0.088 0.393,-0.084L0.393,-0.083C0.371,-0.045 0.338,-0.019 0.296,-0.005C0.282,-0.001 0.267,0.002 0.252,0.002C0.221,0.003 0.192,-0.002 0.164,-0.013C0.105,-0.038 0.061,-0.078 0.031,-0.133C0.01,-0.174 0,-0.217 0.001,-0.262C0.002,-0.308 0.014,-0.35 0.037,-0.39C0.055,-0.419 0.078,-0.444 0.107,-0.465C0.136,-0.485 0.168,-0.499 0.202,-0.505C0.215,-0.507 0.228,-0.507 0.242,-0.507C0.284,-0.506 0.324,-0.494 0.36,-0.471C0.385,-0.453 0.403,-0.435 0.416,-0.415C0.433,-0.385 0.432,-0.358 0.412,-0.333C0.395,-0.315 0.374,-0.302 0.348,-0.294C0.332,-0.289 0.316,-0.284 0.3,-0.28ZM0.125,-0.184C0.139,-0.208 0.155,-0.227 0.173,-0.241C0.192,-0.255 0.212,-0.266 0.233,-0.273C0.254,-0.281 0.275,-0.287 0.296,-0.292C0.304,-0.295 0.312,-0.297 0.32,-0.299C0.329,-0.302 0.336,-0.307 0.341,-0.314C0.346,-0.321 0.348,-0.329 0.348,-0.338C0.346,-0.361 0.343,-0.38 0.338,-0.396C0.333,-0.413 0.328,-0.425 0.323,-0.435C0.305,-0.467 0.277,-0.486 0.24,-0.492C0.229,-0.494 0.217,-0.493 0.205,-0.491C0.174,-0.485 0.15,-0.47 0.132,-0.447C0.114,-0.423 0.103,-0.396 0.1,-0.366C0.096,-0.337 0.097,-0.306 0.101,-0.274C0.105,-0.242 0.113,-0.212 0.125,-0.184Z" style="fill:rgb(0,14,46);fill-rule:nonzero;"/>
            </g>
            <g transform="matrix(200,0,0,200,331.229,505.357)">
                <path d="M0.3,-0.28C0.278,-0.274 0.257,-0.268 0.236,-0.26C0.215,-0.252 0.195,-0.241 0.177,-0.227C0.159,-0.213 0.144,-0.193 0.132,-0.168C0.149,-0.135 0.172,-0.108 0.201,-0.085C0.218,-0.073 0.237,-0.064 0.257,-0.058C0.267,-0.055 0.277,-0.054 0.288,-0.054C0.305,-0.054 0.322,-0.058 0.337,-0.065C0.352,-0.073 0.365,-0.083 0.377,-0.096C0.393,-0.114 0.404,-0.135 0.412,-0.159L0.425,-0.155C0.419,-0.136 0.412,-0.121 0.406,-0.108C0.4,-0.096 0.395,-0.088 0.393,-0.084L0.393,-0.083C0.371,-0.045 0.338,-0.019 0.296,-0.005C0.282,-0.001 0.267,0.002 0.252,0.002C0.221,0.003 0.192,-0.002 0.164,-0.013C0.105,-0.038 0.061,-0.078 0.031,-0.133C0.01,-0.174 0,-0.217 0.001,-0.262C0.002,-0.308 0.014,-0.35 0.037,-0.39C0.055,-0.419 0.078,-0.444 0.107,-0.465C0.136,-0.485 0.168,-0.499 0.202,-0.505C0.215,-0.507 0.228,-0.507 0.242,-0.507C0.284,-0.506 0.324,-0.494 0.36,-0.471C0.385,-0.453 0.403,-0.435 0.416,-0.415C0.433,-0.385 0.432,-0.358 0.412,-0.333C0.395,-0.315 0.374,-0.302 0.348,-0.294C0.332,-0.289 0.316,-0.284 0.3,-0.28ZM0.125,-0.184C0.139,-0.208 0.155,-0.227 0.173,-0.241C0.192,-0.255 0.212,-0.266 0.233,-0.273C0.254,-0.281 0.275,-0.287 0.296,-0.292C0.304,-0.295 0.312,-0.297 0.32,-0.299C0.329,-0.302 0.336,-0.307 0.341,-0.314C0.346,-0.321 0.348,-0.329 0.348,-0.338C0.346,-0.361 0.343,-0.38 0.338,-0.396C0.333,-0.413 0.328,-0.425 0.323,-0.435C0.305,-0.467 0.277,-0.486 0.24,-0.492C0.229,-0.494 0.217,-0.493 0.205,-0.491C0.174,-0.485 0.15,-0.47 0.132,-0.447C0.114,-0.423 0.103,-0.396 0.1,-0.366C0.096,-0.337 0.097,-0.306 0.101,-0.274C0.105,-0.242 0.113,-0.212 0.125,-0.184Z" style="fill:rgb(0,14,46);fill-rule:nonzero;"/>
            </g>
            <g transform="matrix(200,0,0,200,424.491,505.357)">
                <path d="M0.379,-0.494C0.414,-0.48 0.443,-0.46 0.468,-0.432C0.492,-0.404 0.509,-0.372 0.52,-0.336C0.531,-0.298 0.534,-0.259 0.528,-0.219C0.523,-0.179 0.51,-0.142 0.49,-0.107C0.477,-0.084 0.459,-0.063 0.438,-0.045C0.417,-0.028 0.393,-0.014 0.368,-0.006C0.342,0.003 0.315,0.004 0.288,-0C0.262,-0.006 0.24,-0.017 0.219,-0.033C0.199,-0.049 0.184,-0.066 0.172,-0.084C0.172,-0.084 0.172,-0.085 0.172,-0.085L0.172,0.056C0.172,0.09 0.174,0.117 0.179,0.135C0.184,0.154 0.189,0.168 0.195,0.176C0.198,0.18 0.201,0.183 0.203,0.186C0.206,0.188 0.208,0.19 0.21,0.191C0.213,0.192 0.215,0.192 0.216,0.193C0.217,0.193 0.218,0.193 0.218,0.193L0.218,0.2L0.018,0.2L0.018,0.193C0.018,0.193 0.019,0.193 0.021,0.192C0.022,0.192 0.024,0.191 0.027,0.19C0.03,0.188 0.033,0.186 0.036,0.182C0.039,0.179 0.043,0.174 0.046,0.167C0.049,0.161 0.052,0.153 0.055,0.143C0.057,0.133 0.059,0.121 0.061,0.107C0.063,0.093 0.063,0.076 0.063,0.056L0.063,-0.315C0.063,-0.336 0.06,-0.352 0.054,-0.365C0.048,-0.379 0.042,-0.389 0.034,-0.397C0.026,-0.405 0.019,-0.41 0.012,-0.414C0.006,-0.417 0.002,-0.418 0.001,-0.418L0.001,-0.419L0.001,-0.418L0,-0.425L0.004,-0.427C0.006,-0.427 0.007,-0.427 0.008,-0.427C0.009,-0.428 0.009,-0.428 0.01,-0.428C0.045,-0.437 0.078,-0.451 0.109,-0.47C0.118,-0.476 0.127,-0.482 0.135,-0.489L0.135,-0.49C0.14,-0.495 0.145,-0.5 0.148,-0.505L0.172,-0.505L0.172,-0.438C0.172,-0.438 0.173,-0.438 0.173,-0.438C0.173,-0.439 0.174,-0.439 0.174,-0.44C0.198,-0.472 0.229,-0.493 0.266,-0.502C0.304,-0.511 0.341,-0.508 0.379,-0.494ZM0.402,-0.151C0.42,-0.205 0.428,-0.261 0.424,-0.318C0.423,-0.343 0.418,-0.367 0.41,-0.391C0.403,-0.414 0.39,-0.435 0.374,-0.454C0.358,-0.47 0.34,-0.482 0.319,-0.488C0.299,-0.494 0.278,-0.493 0.256,-0.486C0.227,-0.475 0.203,-0.457 0.185,-0.432C0.18,-0.426 0.176,-0.419 0.172,-0.412L0.172,-0.107C0.184,-0.087 0.2,-0.069 0.221,-0.056C0.242,-0.042 0.265,-0.036 0.29,-0.039C0.319,-0.043 0.343,-0.056 0.361,-0.078C0.379,-0.1 0.393,-0.125 0.402,-0.151Z" style="fill:rgb(0,14,46);fill-rule:nonzero;"/>
            </g>
            <g transform="matrix(200,0,0,200,120.096,649.357)">
                <path d="M0.551,-0.483C0.559,-0.462 0.566,-0.44 0.57,-0.417C0.574,-0.395 0.576,-0.373 0.576,-0.35C0.576,-0.327 0.574,-0.305 0.57,-0.283C0.566,-0.26 0.559,-0.238 0.551,-0.217C0.516,-0.132 0.457,-0.069 0.374,-0.028C0.334,-0.009 0.293,-0 0.252,-0L0,-0L0,-0.007C0,-0.007 0.001,-0.007 0.002,-0.007C0.004,-0.008 0.006,-0.009 0.009,-0.01C0.012,-0.012 0.015,-0.014 0.018,-0.018C0.021,-0.021 0.024,-0.026 0.027,-0.032C0.031,-0.039 0.034,-0.047 0.036,-0.057C0.039,-0.067 0.041,-0.079 0.043,-0.093C0.045,-0.108 0.045,-0.125 0.045,-0.144L0.045,-0.556C0.045,-0.576 0.045,-0.593 0.043,-0.607C0.041,-0.621 0.039,-0.633 0.036,-0.643C0.034,-0.653 0.031,-0.661 0.027,-0.668C0.024,-0.674 0.021,-0.679 0.018,-0.682C0.015,-0.686 0.012,-0.688 0.009,-0.69C0.006,-0.692 0.004,-0.693 0.002,-0.693C0.001,-0.693 0,-0.693 0,-0.693L0,-0.7L0.252,-0.7C0.294,-0.7 0.334,-0.691 0.374,-0.672C0.457,-0.631 0.516,-0.568 0.551,-0.483ZM0.466,-0.297C0.467,-0.315 0.468,-0.333 0.468,-0.35C0.468,-0.368 0.467,-0.385 0.466,-0.403C0.465,-0.421 0.462,-0.438 0.459,-0.456C0.454,-0.493 0.443,-0.528 0.428,-0.563C0.413,-0.597 0.39,-0.626 0.36,-0.649C0.345,-0.661 0.328,-0.67 0.309,-0.677C0.291,-0.683 0.271,-0.687 0.252,-0.687L0.154,-0.687L0.154,-0.014L0.252,-0.014C0.272,-0.014 0.291,-0.017 0.309,-0.023C0.328,-0.03 0.345,-0.039 0.36,-0.051C0.389,-0.074 0.412,-0.103 0.428,-0.137C0.443,-0.172 0.454,-0.208 0.459,-0.244C0.462,-0.262 0.465,-0.279 0.466,-0.297Z" style="fill:rgb(255,74,74);fill-rule:nonzero;"/>
            </g>
            <g transform="matrix(200,0,0,200,246.073,649.357)">
                <path d="M0.195,-0.024C0.198,-0.02 0.201,-0.016 0.203,-0.014C0.206,-0.011 0.208,-0.01 0.21,-0.009C0.213,-0.008 0.215,-0.007 0.216,-0.007C0.217,-0.007 0.218,-0.007 0.218,-0.007L0.218,-0L0.018,-0L0.018,-0.007C0.018,-0.007 0.019,-0.007 0.021,-0.007C0.022,-0.008 0.024,-0.009 0.027,-0.01C0.03,-0.011 0.033,-0.014 0.036,-0.018C0.039,-0.021 0.043,-0.026 0.046,-0.032C0.049,-0.039 0.052,-0.047 0.055,-0.057C0.057,-0.067 0.059,-0.079 0.061,-0.093C0.063,-0.107 0.063,-0.124 0.063,-0.144L0.063,-0.315C0.063,-0.336 0.06,-0.352 0.054,-0.365C0.048,-0.379 0.042,-0.389 0.034,-0.397C0.026,-0.405 0.019,-0.41 0.012,-0.414C0.006,-0.417 0.002,-0.418 0.001,-0.418L0.001,-0.419L0.001,-0.418L0,-0.425L0.004,-0.427C0.006,-0.427 0.007,-0.427 0.008,-0.427C0.009,-0.428 0.009,-0.428 0.01,-0.428C0.045,-0.437 0.078,-0.451 0.109,-0.47C0.118,-0.476 0.127,-0.482 0.135,-0.489C0.135,-0.489 0.135,-0.489 0.135,-0.49C0.14,-0.495 0.145,-0.5 0.149,-0.505L0.172,-0.505L0.172,-0.144C0.172,-0.109 0.174,-0.083 0.179,-0.064C0.184,-0.045 0.189,-0.032 0.195,-0.024ZM0.109,-0.552C0.094,-0.552 0.08,-0.557 0.07,-0.568C0.059,-0.579 0.053,-0.592 0.053,-0.607C0.053,-0.623 0.059,-0.636 0.07,-0.646C0.08,-0.657 0.094,-0.663 0.109,-0.663C0.124,-0.663 0.137,-0.657 0.148,-0.646C0.159,-0.636 0.164,-0.623 0.164,-0.607C0.164,-0.592 0.159,-0.579 0.148,-0.568C0.137,-0.557 0.124,-0.552 0.109,-0.552Z" style="fill:rgb(255,74,74);fill-rule:nonzero;"/>
            </g>
            <g transform="matrix(200,0,0,200,296.463,649.357)">
                <path d="M0.41,-0.401L0.308,-0.364C0.315,-0.389 0.313,-0.413 0.302,-0.434C0.292,-0.456 0.275,-0.472 0.253,-0.483C0.232,-0.494 0.208,-0.496 0.183,-0.491C0.16,-0.487 0.141,-0.476 0.126,-0.458C0.11,-0.44 0.105,-0.42 0.109,-0.397C0.114,-0.378 0.123,-0.362 0.137,-0.35C0.152,-0.337 0.168,-0.326 0.188,-0.318C0.207,-0.309 0.226,-0.302 0.247,-0.295C0.272,-0.286 0.295,-0.277 0.314,-0.267C0.332,-0.258 0.349,-0.245 0.365,-0.23C0.38,-0.215 0.392,-0.198 0.401,-0.179C0.41,-0.16 0.412,-0.14 0.408,-0.118C0.402,-0.086 0.388,-0.06 0.365,-0.042C0.341,-0.024 0.314,-0.012 0.283,-0.005C0.252,0.001 0.222,0.003 0.194,0.001C0.157,-0.001 0.122,-0.011 0.091,-0.029C0.059,-0.047 0.029,-0.069 0,-0.093L0.097,-0.142C0.092,-0.116 0.096,-0.092 0.109,-0.071C0.121,-0.049 0.138,-0.033 0.16,-0.022C0.182,-0.011 0.206,-0.008 0.232,-0.014C0.254,-0.019 0.273,-0.03 0.29,-0.047C0.306,-0.064 0.314,-0.084 0.313,-0.107C0.311,-0.121 0.301,-0.133 0.282,-0.144C0.263,-0.154 0.244,-0.164 0.223,-0.171C0.21,-0.177 0.2,-0.181 0.191,-0.186C0.163,-0.197 0.137,-0.212 0.111,-0.229C0.086,-0.247 0.066,-0.268 0.051,-0.293C0.036,-0.318 0.03,-0.347 0.034,-0.381C0.039,-0.416 0.053,-0.443 0.078,-0.464C0.102,-0.484 0.131,-0.497 0.165,-0.503C0.198,-0.509 0.23,-0.508 0.261,-0.5C0.32,-0.486 0.369,-0.453 0.41,-0.401Z" style="fill:rgb(255,74,74);fill-rule:nonzero;"/>
            </g>
            <g transform="matrix(200,0,0,200,386.112,649.357)">
                <path d="M0.538,-0.024C0.541,-0.02 0.544,-0.016 0.546,-0.014C0.549,-0.011 0.551,-0.01 0.554,-0.009C0.556,-0.008 0.558,-0.007 0.559,-0.007C0.56,-0.007 0.561,-0.007 0.561,-0.007L0.561,-0L0.361,-0L0.361,-0.007C0.361,-0.007 0.362,-0.007 0.364,-0.007C0.365,-0.008 0.368,-0.009 0.37,-0.01C0.373,-0.011 0.376,-0.014 0.379,-0.018C0.382,-0.021 0.385,-0.026 0.389,-0.032C0.392,-0.039 0.395,-0.047 0.398,-0.057C0.4,-0.067 0.403,-0.079 0.404,-0.093C0.406,-0.107 0.407,-0.124 0.407,-0.144L0.407,-0.324C0.407,-0.337 0.407,-0.351 0.406,-0.366C0.405,-0.382 0.403,-0.397 0.399,-0.411C0.395,-0.425 0.389,-0.437 0.379,-0.447C0.37,-0.456 0.357,-0.461 0.34,-0.461C0.33,-0.461 0.318,-0.459 0.304,-0.457C0.291,-0.454 0.277,-0.448 0.262,-0.44C0.247,-0.432 0.232,-0.42 0.217,-0.405C0.201,-0.39 0.187,-0.37 0.172,-0.347L0.172,-0.144C0.172,-0.109 0.175,-0.083 0.179,-0.064C0.184,-0.045 0.189,-0.032 0.195,-0.024C0.198,-0.02 0.201,-0.016 0.203,-0.014C0.206,-0.011 0.209,-0.01 0.211,-0.009C0.213,-0.008 0.215,-0.007 0.216,-0.007C0.217,-0.007 0.218,-0.007 0.218,-0.007L0.218,-0L0.018,-0L0.018,-0.007C0.018,-0.007 0.019,-0.007 0.021,-0.007C0.023,-0.008 0.025,-0.009 0.027,-0.01C0.03,-0.011 0.033,-0.014 0.036,-0.018C0.039,-0.021 0.043,-0.026 0.046,-0.032C0.049,-0.039 0.052,-0.047 0.055,-0.057C0.058,-0.067 0.06,-0.079 0.062,-0.093C0.063,-0.107 0.064,-0.124 0.064,-0.144L0.064,-0.537C0.064,-0.557 0.061,-0.573 0.055,-0.587C0.049,-0.6 0.042,-0.61 0.034,-0.618C0.026,-0.626 0.019,-0.632 0.013,-0.635C0.007,-0.638 0.003,-0.64 0.002,-0.64L0.001,-0.64L0,-0.646L0.008,-0.649C0.009,-0.649 0.01,-0.649 0.01,-0.649C0.045,-0.659 0.078,-0.673 0.109,-0.691C0.118,-0.697 0.127,-0.703 0.135,-0.71L0.135,-0.71L0.135,-0.711C0.14,-0.716 0.145,-0.721 0.149,-0.726L0.172,-0.726L0.172,-0.371C0.172,-0.371 0.173,-0.372 0.173,-0.372C0.173,-0.373 0.174,-0.373 0.174,-0.374C0.193,-0.402 0.216,-0.428 0.243,-0.451C0.27,-0.474 0.3,-0.491 0.334,-0.501C0.357,-0.508 0.38,-0.509 0.404,-0.504C0.427,-0.499 0.448,-0.489 0.466,-0.473C0.48,-0.459 0.491,-0.444 0.498,-0.427C0.505,-0.409 0.51,-0.391 0.512,-0.372C0.514,-0.353 0.515,-0.334 0.515,-0.315L0.515,-0.144C0.515,-0.109 0.517,-0.083 0.522,-0.064C0.527,-0.045 0.532,-0.032 0.538,-0.024Z" style="fill:rgb(255,74,74);fill-rule:nonzero;"/>
            </g>
            <g transform="matrix(200,0,0,200,510.917,649.357)">
                <path d="M0.195,-0.024C0.198,-0.02 0.201,-0.016 0.203,-0.014C0.206,-0.011 0.208,-0.01 0.21,-0.009C0.213,-0.008 0.215,-0.007 0.216,-0.007C0.217,-0.007 0.218,-0.007 0.218,-0.007L0.218,-0L0.018,-0L0.018,-0.007C0.018,-0.007 0.019,-0.007 0.021,-0.007C0.022,-0.008 0.024,-0.009 0.027,-0.01C0.03,-0.011 0.033,-0.014 0.036,-0.018C0.039,-0.021 0.043,-0.026 0.046,-0.032C0.049,-0.039 0.052,-0.047 0.055,-0.057C0.057,-0.067 0.059,-0.079 0.061,-0.093C0.063,-0.107 0.063,-0.124 0.063,-0.144L0.063,-0.315C0.063,-0.336 0.06,-0.352 0.054,-0.365C0.048,-0.379 0.042,-0.389 0.034,-0.397C0.026,-0.405 0.019,-0.41 0.012,-0.414C0.006,-0.417 0.002,-0.418 0.001,-0.418L0.001,-0.419L0.001,-0.418L0,-0.425L0.004,-0.427C0.006,-0.427 0.007,-0.427 0.008,-0.427C0.009,-0.428 0.009,-0.428 0.01,-0.428C0.045,-0.437 0.078,-0.451 0.109,-0.47C0.118,-0.476 0.127,-0.482 0.135,-0.489C0.135,-0.489 0.135,-0.489 0.135,-0.49C0.14,-0.495 0.145,-0.5 0.149,-0.505L0.172,-0.505L0.172,-0.144C0.172,-0.109 0.174,-0.083 0.179,-0.064C0.184,-0.045 0.189,-0.032 0.195,-0.024ZM0.109,-0.552C0.094,-0.552 0.08,-0.557 0.07,-0.568C0.059,-0.579 0.053,-0.592 0.053,-0.607C0.053,-0.623 0.059,-0.636 0.07,-0.646C0.08,-0.657 0.094,-0.663 0.109,-0.663C0.124,-0.663 0.137,-0.657 0.148,-0.646C0.159,-0.636 0.164,-0.623 0.164,-0.607C0.164,-0.592 0.159,-0.579 0.148,-0.568C0.137,-0.557 0.124,-0.552 0.109,-0.552Z" style="fill:rgb(255,74,74);fill-rule:nonzero;"/>
            </g>
            <g transform="matrix(200,0,0,200,567.167,649.357)">
                <path d="M0.982,0.018C0.993,0.054 0.992,0.09 0.978,0.126C0.964,0.161 0.941,0.189 0.909,0.209C0.832,0.254 0.751,0.266 0.665,0.247C0.615,0.234 0.57,0.211 0.531,0.178C0.493,0.146 0.462,0.107 0.44,0.061C0.418,0.015 0.407,-0.033 0.407,-0.085L0.407,-0.324C0.407,-0.337 0.407,-0.351 0.406,-0.366C0.405,-0.382 0.403,-0.397 0.399,-0.411C0.395,-0.425 0.388,-0.437 0.379,-0.447C0.37,-0.456 0.357,-0.461 0.34,-0.461C0.33,-0.461 0.318,-0.459 0.304,-0.456C0.291,-0.453 0.277,-0.448 0.262,-0.439C0.247,-0.431 0.232,-0.42 0.216,-0.405C0.201,-0.39 0.186,-0.37 0.172,-0.347L0.172,-0.144C0.172,-0.109 0.174,-0.083 0.179,-0.064C0.184,-0.045 0.189,-0.032 0.195,-0.024C0.198,-0.02 0.201,-0.016 0.203,-0.014C0.206,-0.011 0.208,-0.01 0.21,-0.009C0.213,-0.008 0.215,-0.007 0.216,-0.007C0.217,-0.007 0.218,-0.006 0.218,-0.006L0.218,-0L0.018,-0L0.018,-0.006C0.018,-0.006 0.019,-0.007 0.021,-0.007C0.022,-0.007 0.024,-0.008 0.027,-0.01C0.03,-0.011 0.033,-0.014 0.036,-0.018C0.039,-0.021 0.043,-0.026 0.046,-0.032C0.049,-0.039 0.052,-0.047 0.055,-0.057C0.057,-0.067 0.059,-0.079 0.061,-0.093C0.063,-0.107 0.064,-0.124 0.064,-0.144L0.064,-0.315C0.064,-0.336 0.061,-0.352 0.055,-0.365C0.049,-0.379 0.042,-0.389 0.034,-0.397C0.026,-0.404 0.019,-0.41 0.012,-0.413C0.006,-0.417 0.002,-0.418 0.001,-0.418L0,-0.425L0.01,-0.428C0.045,-0.437 0.078,-0.451 0.109,-0.47C0.118,-0.476 0.127,-0.482 0.135,-0.489L0.135,-0.489C0.14,-0.494 0.145,-0.499 0.149,-0.505L0.172,-0.505L0.172,-0.371C0.172,-0.371 0.172,-0.372 0.172,-0.372C0.173,-0.372 0.173,-0.373 0.174,-0.374C0.193,-0.402 0.216,-0.428 0.243,-0.451C0.27,-0.473 0.3,-0.49 0.334,-0.501C0.357,-0.508 0.38,-0.509 0.404,-0.504C0.427,-0.499 0.448,-0.489 0.466,-0.473C0.48,-0.459 0.491,-0.444 0.498,-0.426C0.505,-0.409 0.509,-0.391 0.512,-0.372C0.514,-0.352 0.515,-0.333 0.515,-0.315L0.515,-0.085L0.515,-0.065C0.514,-0.037 0.515,-0.004 0.517,0.032C0.52,0.069 0.529,0.102 0.544,0.133C0.563,0.165 0.588,0.191 0.62,0.209C0.652,0.227 0.686,0.236 0.723,0.236C0.744,0.236 0.764,0.233 0.784,0.227C0.804,0.22 0.822,0.211 0.838,0.199C0.854,0.187 0.867,0.173 0.877,0.156C0.887,0.139 0.892,0.121 0.892,0.1C0.892,0.076 0.886,0.055 0.876,0.039C0.866,0.022 0.852,0.009 0.835,-0.002C0.818,-0.012 0.799,-0.019 0.777,-0.024C0.756,-0.028 0.735,-0.031 0.713,-0.031L0.709,-0.031C0.696,-0.03 0.682,-0.031 0.669,-0.033C0.655,-0.035 0.643,-0.041 0.633,-0.05C0.623,-0.06 0.618,-0.072 0.618,-0.086C0.618,-0.101 0.622,-0.114 0.63,-0.126C0.644,-0.144 0.659,-0.156 0.677,-0.162C0.655,-0.171 0.636,-0.183 0.62,-0.198C0.603,-0.214 0.59,-0.232 0.581,-0.254C0.575,-0.266 0.572,-0.279 0.569,-0.292C0.567,-0.306 0.567,-0.319 0.567,-0.333C0.568,-0.346 0.571,-0.359 0.575,-0.372C0.584,-0.397 0.597,-0.419 0.614,-0.437C0.632,-0.456 0.652,-0.471 0.676,-0.483C0.687,-0.488 0.698,-0.493 0.71,-0.497C0.736,-0.53 0.766,-0.56 0.8,-0.585C0.831,-0.609 0.864,-0.63 0.898,-0.647L0.908,-0.54C0.879,-0.553 0.847,-0.557 0.812,-0.55C0.777,-0.543 0.749,-0.527 0.728,-0.501C0.732,-0.502 0.736,-0.503 0.74,-0.504C0.762,-0.507 0.785,-0.508 0.808,-0.505C0.833,-0.502 0.858,-0.494 0.881,-0.482C0.904,-0.47 0.923,-0.453 0.939,-0.433C0.947,-0.422 0.954,-0.41 0.959,-0.398C0.964,-0.386 0.968,-0.373 0.97,-0.359C0.972,-0.346 0.973,-0.333 0.972,-0.319C0.971,-0.306 0.969,-0.293 0.965,-0.28C0.956,-0.256 0.943,-0.234 0.926,-0.215C0.908,-0.196 0.887,-0.181 0.864,-0.169C0.843,-0.159 0.822,-0.152 0.8,-0.148C0.778,-0.144 0.755,-0.144 0.732,-0.147C0.721,-0.149 0.71,-0.151 0.699,-0.154C0.682,-0.149 0.668,-0.141 0.656,-0.128C0.65,-0.121 0.646,-0.112 0.646,-0.103C0.645,-0.094 0.649,-0.086 0.658,-0.082C0.665,-0.079 0.674,-0.078 0.686,-0.079C0.697,-0.08 0.711,-0.082 0.726,-0.085C0.745,-0.089 0.767,-0.092 0.791,-0.095C0.814,-0.097 0.839,-0.096 0.863,-0.091C0.888,-0.086 0.912,-0.075 0.935,-0.057C0.947,-0.048 0.956,-0.037 0.964,-0.024C0.971,-0.011 0.977,0.003 0.982,0.018ZM0.676,-0.31C0.679,-0.295 0.682,-0.28 0.685,-0.264C0.689,-0.246 0.695,-0.229 0.704,-0.212C0.712,-0.195 0.724,-0.182 0.74,-0.172C0.749,-0.167 0.758,-0.164 0.768,-0.162C0.778,-0.16 0.788,-0.16 0.797,-0.161C0.807,-0.163 0.817,-0.167 0.826,-0.171C0.834,-0.176 0.842,-0.183 0.848,-0.19C0.86,-0.205 0.868,-0.222 0.87,-0.24C0.873,-0.258 0.873,-0.276 0.871,-0.295C0.869,-0.311 0.866,-0.326 0.864,-0.342C0.861,-0.357 0.858,-0.372 0.854,-0.388C0.851,-0.406 0.845,-0.423 0.836,-0.44C0.828,-0.457 0.816,-0.47 0.8,-0.48C0.791,-0.485 0.782,-0.488 0.772,-0.49C0.762,-0.492 0.752,-0.492 0.742,-0.491C0.732,-0.489 0.723,-0.486 0.714,-0.48C0.706,-0.476 0.698,-0.469 0.691,-0.462C0.679,-0.447 0.672,-0.43 0.67,-0.412C0.667,-0.394 0.667,-0.376 0.669,-0.357C0.671,-0.341 0.674,-0.325 0.676,-0.31Z" style="fill:rgb(255,74,74);fill-rule:nonzero;"/>
            </g>
        </g>
        <g transform="matrix(2.24019,0,0,2.41591,1444.77,210.13)">
            <path d="M86.901,38.334C91.262,30.912 91.042,22.081 85.628,16.667L63.965,38.334L86.901,38.334Z" style="fill:rgb(0,14,46);fill-rule:nonzero;"/>
            <path d="M14.038,29.731C12.692,30.268 11.665,31.062 11.201,32.189C10.457,33.98 11.198,36.18 12.954,38.335L42.824,38.335C43.319,37.437 43.781,36.482 44.198,35.477C47.321,27.941 46.791,20.568 43.026,19.006C41.906,18.544 40.614,18.707 39.282,19.279C39.744,15.405 38.891,12.267 36.762,11.388C34.56,10.473 31.622,12.221 29.159,15.499C26.561,11.485 23.201,9.226 20.751,10.242C18.301,11.258 17.522,15.229 18.523,19.904C14.465,19.331 11.151,20.168 10.24,22.371C9.357,24.5 10.968,27.319 14.038,29.731Z" style="fill:rgb(0,14,46);fill-rule:nonzero;"/>
            <path d="M90,43.334C90,61.743 72.093,76.667 50,76.667C27.907,76.667 10,61.742 10,43.334L90,43.334Z" style="fill:rgb(0,14,46);fill-rule:nonzero;"/>
            <path d="M56.667,16.667C54.036,16.667 51.526,17.188 49.226,18.116C50.32,19.877 51.003,22.094 51.185,24.643C51.458,28.517 50.619,33.041 48.816,37.39C48.682,37.719 48.509,38.015 48.366,38.334L56.895,38.334L71.709,23.52C68.04,19.327 62.669,16.667 56.667,16.667Z" style="fill:rgb(255,74,74);fill-rule:nonzero;"/>
        </g>
    </g>
</svg>
