<?xml version="1.0" standalone="no"?>
<!DOCTYPE svg PUBLIC "-//W3C//DTD SVG 20010904//EN"
 "http://www.w3.org/TR/2001/REC-SVG-20010904/DTD/svg10.dtd">
<svg version="1.0" xmlns="http://www.w3.org/2000/svg"
 width="808.000000pt" height="808.000000pt" viewBox="0 0 808.000000 808.000000"
 preserveAspectRatio="xMidYMid meet">
<metadata>
Created by potrace 1.14, written by Peter Selinger 2001-2017
</metadata>
<g transform="translate(0.000000,808.000000) scale(0.100000,-0.100000)"
fill="#000000" stroke="none">
<path d="M1760 8025 c-930 -115 -1650 -850 -1750 -1787 -14 -134 -14 -4262 0
-4396 89 -832 674 -1520 1471 -1731 265 -71 72 -65 2444 -69 1479 -2 2175 0
2253 8 622 59 1164 387 1505 910 162 249 275 570 307 871 13 127 13 4291 0
4418 -38 361 -182 720 -409 1016 -64 85 -232 256 -321 328 -226 183 -495 316
-779 387 -247 62 -158 60 -2491 59 -1678 -1 -2147 -4 -2230 -14z m252 -1525
c124 -38 261 -148 375 -301 l65 -87 62 72 c162 185 344 274 481 236 94 -26
171 -129 201 -268 7 -37 14 -123 14 -193 l0 -125 73 18 c202 53 353 -59 414
-307 24 -95 24 -363 0 -490 -32 -177 -94 -366 -179 -542 l-48 -103 -1109 0
-1109 0 -26 31 c-112 133 -156 319 -102 434 26 56 97 127 153 152 21 10 40 18
41 20 2 1 -38 44 -90 95 -205 205 -253 390 -136 523 80 90 211 128 426 123
l143 -3 -6 35 c-51 267 -19 495 85 613 71 81 158 103 272 67z m4765 -638 c184
-276 237 -634 148 -1000 -28 -118 -88 -273 -143 -377 l-37 -70 -847 -3 c-467
-1 -848 1 -848 5 0 5 359 367 797 805 l798 798 38 -38 c21 -20 64 -75 94 -120z
m193 -1889 c-1 -345 -142 -785 -357 -1113 -140 -213 -358 -451 -563 -613 -453
-360 -1028 -589 -1665 -663 -172 -20 -552 -23 -720 -5 -596 62 -1111 246
-1565 559 -268 184 -516 432 -692 692 -222 328 -354 713 -375 1092 l-6 118
2971 0 2972 0 0 -67z"/>
</g>
</svg>
